%TF.GenerationSoftware,KiCad,Pcbnew,10.0.3*%
%TF.CreationDate,2026-06-19T19:43:38+05:30*%
%TF.ProjectId,macropad,6d616372-6f70-4616-942e-6b696361645f,rev?*%
%TF.SameCoordinates,Original*%
%TF.FileFunction,Legend,Bot*%
%TF.FilePolarity,Positive*%
%FSLAX46Y46*%
G04 Gerber Fmt 4.6, Leading zero omitted, Abs format (unit mm)*
G04 Created by KiCad (PCBNEW 10.0.3) date 2026-09-17 19:43:38*
%MOMM*%
%LPD*%
G01*
G04 APERTURE LIST*
%ADD10C,0.101600*%
%ADD11C,0.150000*%
%ADD12C,0.127000*%
%ADD13C,0.120000*%
%ADD14C,0.254000*%
%ADD15C,0.025400*%
G04 APERTURE END LIST*
D10*
X94552333Y-86636985D02*
X94552333Y-87356652D01*
X94552333Y-87356652D02*
X94510000Y-87441318D01*
X94510000Y-87441318D02*
X94467666Y-87483652D01*
X94467666Y-87483652D02*
X94383000Y-87525985D01*
X94383000Y-87525985D02*
X94213666Y-87525985D01*
X94213666Y-87525985D02*
X94129000Y-87483652D01*
X94129000Y-87483652D02*
X94086666Y-87441318D01*
X94086666Y-87441318D02*
X94044333Y-87356652D01*
X94044333Y-87356652D02*
X94044333Y-86636985D01*
X93155333Y-87525985D02*
X93663333Y-87525985D01*
X93409333Y-87525985D02*
X93409333Y-86636985D01*
X93409333Y-86636985D02*
X93494000Y-86763985D01*
X93494000Y-86763985D02*
X93578667Y-86848652D01*
X93578667Y-86848652D02*
X93663333Y-86890985D01*
D11*
X98636904Y-83487200D02*
X98494047Y-83534819D01*
X98494047Y-83534819D02*
X98255952Y-83534819D01*
X98255952Y-83534819D02*
X98160714Y-83487200D01*
X98160714Y-83487200D02*
X98113095Y-83439580D01*
X98113095Y-83439580D02*
X98065476Y-83344342D01*
X98065476Y-83344342D02*
X98065476Y-83249104D01*
X98065476Y-83249104D02*
X98113095Y-83153866D01*
X98113095Y-83153866D02*
X98160714Y-83106247D01*
X98160714Y-83106247D02*
X98255952Y-83058628D01*
X98255952Y-83058628D02*
X98446428Y-83011009D01*
X98446428Y-83011009D02*
X98541666Y-82963390D01*
X98541666Y-82963390D02*
X98589285Y-82915771D01*
X98589285Y-82915771D02*
X98636904Y-82820533D01*
X98636904Y-82820533D02*
X98636904Y-82725295D01*
X98636904Y-82725295D02*
X98589285Y-82630057D01*
X98589285Y-82630057D02*
X98541666Y-82582438D01*
X98541666Y-82582438D02*
X98446428Y-82534819D01*
X98446428Y-82534819D02*
X98208333Y-82534819D01*
X98208333Y-82534819D02*
X98065476Y-82582438D01*
X97255952Y-83487200D02*
X97351190Y-83534819D01*
X97351190Y-83534819D02*
X97541666Y-83534819D01*
X97541666Y-83534819D02*
X97636904Y-83487200D01*
X97636904Y-83487200D02*
X97684523Y-83391961D01*
X97684523Y-83391961D02*
X97684523Y-83011009D01*
X97684523Y-83011009D02*
X97636904Y-82915771D01*
X97636904Y-82915771D02*
X97541666Y-82868152D01*
X97541666Y-82868152D02*
X97351190Y-82868152D01*
X97351190Y-82868152D02*
X97255952Y-82915771D01*
X97255952Y-82915771D02*
X97208333Y-83011009D01*
X97208333Y-83011009D02*
X97208333Y-83106247D01*
X97208333Y-83106247D02*
X97684523Y-83201485D01*
X96398809Y-83487200D02*
X96494047Y-83534819D01*
X96494047Y-83534819D02*
X96684523Y-83534819D01*
X96684523Y-83534819D02*
X96779761Y-83487200D01*
X96779761Y-83487200D02*
X96827380Y-83391961D01*
X96827380Y-83391961D02*
X96827380Y-83011009D01*
X96827380Y-83011009D02*
X96779761Y-82915771D01*
X96779761Y-82915771D02*
X96684523Y-82868152D01*
X96684523Y-82868152D02*
X96494047Y-82868152D01*
X96494047Y-82868152D02*
X96398809Y-82915771D01*
X96398809Y-82915771D02*
X96351190Y-83011009D01*
X96351190Y-83011009D02*
X96351190Y-83106247D01*
X96351190Y-83106247D02*
X96827380Y-83201485D01*
X95541666Y-83487200D02*
X95636904Y-83534819D01*
X95636904Y-83534819D02*
X95827380Y-83534819D01*
X95827380Y-83534819D02*
X95922618Y-83487200D01*
X95922618Y-83487200D02*
X95970237Y-83391961D01*
X95970237Y-83391961D02*
X95970237Y-83011009D01*
X95970237Y-83011009D02*
X95922618Y-82915771D01*
X95922618Y-82915771D02*
X95827380Y-82868152D01*
X95827380Y-82868152D02*
X95636904Y-82868152D01*
X95636904Y-82868152D02*
X95541666Y-82915771D01*
X95541666Y-82915771D02*
X95494047Y-83011009D01*
X95494047Y-83011009D02*
X95494047Y-83106247D01*
X95494047Y-83106247D02*
X95970237Y-83201485D01*
X94636904Y-83534819D02*
X94636904Y-82534819D01*
X94636904Y-83487200D02*
X94732142Y-83534819D01*
X94732142Y-83534819D02*
X94922618Y-83534819D01*
X94922618Y-83534819D02*
X95017856Y-83487200D01*
X95017856Y-83487200D02*
X95065475Y-83439580D01*
X95065475Y-83439580D02*
X95113094Y-83344342D01*
X95113094Y-83344342D02*
X95113094Y-83058628D01*
X95113094Y-83058628D02*
X95065475Y-82963390D01*
X95065475Y-82963390D02*
X95017856Y-82915771D01*
X95017856Y-82915771D02*
X94922618Y-82868152D01*
X94922618Y-82868152D02*
X94732142Y-82868152D01*
X94732142Y-82868152D02*
X94636904Y-82915771D01*
X93446427Y-83487200D02*
X93303570Y-83534819D01*
X93303570Y-83534819D02*
X93065475Y-83534819D01*
X93065475Y-83534819D02*
X92970237Y-83487200D01*
X92970237Y-83487200D02*
X92922618Y-83439580D01*
X92922618Y-83439580D02*
X92874999Y-83344342D01*
X92874999Y-83344342D02*
X92874999Y-83249104D01*
X92874999Y-83249104D02*
X92922618Y-83153866D01*
X92922618Y-83153866D02*
X92970237Y-83106247D01*
X92970237Y-83106247D02*
X93065475Y-83058628D01*
X93065475Y-83058628D02*
X93255951Y-83011009D01*
X93255951Y-83011009D02*
X93351189Y-82963390D01*
X93351189Y-82963390D02*
X93398808Y-82915771D01*
X93398808Y-82915771D02*
X93446427Y-82820533D01*
X93446427Y-82820533D02*
X93446427Y-82725295D01*
X93446427Y-82725295D02*
X93398808Y-82630057D01*
X93398808Y-82630057D02*
X93351189Y-82582438D01*
X93351189Y-82582438D02*
X93255951Y-82534819D01*
X93255951Y-82534819D02*
X93017856Y-82534819D01*
X93017856Y-82534819D02*
X92874999Y-82582438D01*
X92589284Y-82868152D02*
X92208332Y-82868152D01*
X92446427Y-82534819D02*
X92446427Y-83391961D01*
X92446427Y-83391961D02*
X92398808Y-83487200D01*
X92398808Y-83487200D02*
X92303570Y-83534819D01*
X92303570Y-83534819D02*
X92208332Y-83534819D01*
X91446427Y-82868152D02*
X91446427Y-83534819D01*
X91874998Y-82868152D02*
X91874998Y-83391961D01*
X91874998Y-83391961D02*
X91827379Y-83487200D01*
X91827379Y-83487200D02*
X91732141Y-83534819D01*
X91732141Y-83534819D02*
X91589284Y-83534819D01*
X91589284Y-83534819D02*
X91494046Y-83487200D01*
X91494046Y-83487200D02*
X91446427Y-83439580D01*
X90541665Y-83534819D02*
X90541665Y-82534819D01*
X90541665Y-83487200D02*
X90636903Y-83534819D01*
X90636903Y-83534819D02*
X90827379Y-83534819D01*
X90827379Y-83534819D02*
X90922617Y-83487200D01*
X90922617Y-83487200D02*
X90970236Y-83439580D01*
X90970236Y-83439580D02*
X91017855Y-83344342D01*
X91017855Y-83344342D02*
X91017855Y-83058628D01*
X91017855Y-83058628D02*
X90970236Y-82963390D01*
X90970236Y-82963390D02*
X90922617Y-82915771D01*
X90922617Y-82915771D02*
X90827379Y-82868152D01*
X90827379Y-82868152D02*
X90636903Y-82868152D01*
X90636903Y-82868152D02*
X90541665Y-82915771D01*
X90065474Y-83534819D02*
X90065474Y-82868152D01*
X90065474Y-82534819D02*
X90113093Y-82582438D01*
X90113093Y-82582438D02*
X90065474Y-82630057D01*
X90065474Y-82630057D02*
X90017855Y-82582438D01*
X90017855Y-82582438D02*
X90065474Y-82534819D01*
X90065474Y-82534819D02*
X90065474Y-82630057D01*
X89446427Y-83534819D02*
X89541665Y-83487200D01*
X89541665Y-83487200D02*
X89589284Y-83439580D01*
X89589284Y-83439580D02*
X89636903Y-83344342D01*
X89636903Y-83344342D02*
X89636903Y-83058628D01*
X89636903Y-83058628D02*
X89589284Y-82963390D01*
X89589284Y-82963390D02*
X89541665Y-82915771D01*
X89541665Y-82915771D02*
X89446427Y-82868152D01*
X89446427Y-82868152D02*
X89303570Y-82868152D01*
X89303570Y-82868152D02*
X89208332Y-82915771D01*
X89208332Y-82915771D02*
X89160713Y-82963390D01*
X89160713Y-82963390D02*
X89113094Y-83058628D01*
X89113094Y-83058628D02*
X89113094Y-83344342D01*
X89113094Y-83344342D02*
X89160713Y-83439580D01*
X89160713Y-83439580D02*
X89208332Y-83487200D01*
X89208332Y-83487200D02*
X89303570Y-83534819D01*
X89303570Y-83534819D02*
X89446427Y-83534819D01*
X95398808Y-84534819D02*
X94732142Y-85534819D01*
X94732142Y-84534819D02*
X95398808Y-85534819D01*
X94351189Y-85534819D02*
X94351189Y-84534819D01*
X93922618Y-85249104D02*
X93446428Y-85249104D01*
X94017856Y-85534819D02*
X93684523Y-84534819D01*
X93684523Y-84534819D02*
X93351190Y-85534819D01*
X92827380Y-84534819D02*
X92636904Y-84534819D01*
X92636904Y-84534819D02*
X92541666Y-84582438D01*
X92541666Y-84582438D02*
X92446428Y-84677676D01*
X92446428Y-84677676D02*
X92398809Y-84868152D01*
X92398809Y-84868152D02*
X92398809Y-85201485D01*
X92398809Y-85201485D02*
X92446428Y-85391961D01*
X92446428Y-85391961D02*
X92541666Y-85487200D01*
X92541666Y-85487200D02*
X92636904Y-85534819D01*
X92636904Y-85534819D02*
X92827380Y-85534819D01*
X92827380Y-85534819D02*
X92922618Y-85487200D01*
X92922618Y-85487200D02*
X93017856Y-85391961D01*
X93017856Y-85391961D02*
X93065475Y-85201485D01*
X93065475Y-85201485D02*
X93065475Y-84868152D01*
X93065475Y-84868152D02*
X93017856Y-84677676D01*
X93017856Y-84677676D02*
X92922618Y-84582438D01*
X92922618Y-84582438D02*
X92827380Y-84534819D01*
%TO.C,U1*%
D12*
X84975000Y-93080000D02*
X84975000Y-76080000D01*
X86975000Y-74080910D02*
X100775000Y-74080910D01*
X89375000Y-72655970D02*
X89375000Y-80009270D01*
X89375000Y-80009270D02*
X98375000Y-80009270D01*
X98375000Y-72655970D02*
X89375000Y-72655970D01*
X98375000Y-80009270D02*
X98375000Y-72655970D01*
X100775000Y-95080000D02*
X86975000Y-95080000D01*
X102775000Y-76080000D02*
X102775000Y-93080000D01*
D13*
X84975000Y-76080000D02*
G75*
G02*
X86975000Y-74080000I2044610J-44610D01*
G01*
X86975000Y-95080000D02*
G75*
G02*
X84975000Y-93080000I0J2000000D01*
G01*
X100775000Y-74080000D02*
G75*
G02*
X102775000Y-76080000I-44612J-2044612D01*
G01*
X102775000Y-93080000D02*
G75*
G02*
X100775000Y-95080000I-2044857J44857D01*
G01*
D14*
X105002000Y-75780000D02*
G75*
G02*
X104748000Y-75780000I-127000J0D01*
G01*
X104748000Y-75780000D02*
G75*
G02*
X105002000Y-75780000I127000J0D01*
G01*
D15*
X102762715Y-76018295D02*
X102759667Y-75969527D01*
X102755603Y-75920506D01*
X102762715Y-76018295D01*
X84985508Y-93101574D02*
X84987287Y-93150850D01*
X84990335Y-93199618D01*
X84994399Y-93248639D01*
X84999732Y-93297407D01*
X85006336Y-93346175D01*
X85013956Y-93394690D01*
X85022847Y-93442950D01*
X85032752Y-93490955D01*
X84985508Y-93101574D01*
%TD*%
M02*
